<?xml version="1.0" encoding="utf-8"?>
<!-- Generator: Adobe Illustrator 26.0.1, SVG Export Plug-In . SVG Version: 6.00 Build 0)  -->
<svg version="1.1" id="Layer_1" xmlns="http://www.w3.org/2000/svg" xmlns:xlink="http://www.w3.org/1999/xlink" x="0px" y="0px"
	 viewBox="0 0 131 45" style="enable-background:new 0 0 131 45;" xml:space="preserve">
<style type="text/css">
	.st0{fill:#EA4335;}
	.st1{fill:#4285F4;}
	.st2{fill:#34A853;}
	.st3{fill:#FBBC05;}
	.st4{fill:#FFFFFF;}
</style>
<path class="st0" d="M15.4,17.4h0.7l2.1-2.1l0.1-0.9c-1.2-1.1-2.7-1.8-4.2-2.2c-1.6-0.3-3.2-0.3-4.8,0.2c-1.5,0.5-2.9,1.3-4.1,2.5
	C4.2,16,3.3,17.4,2.9,19c0.2-0.1,0.5-0.1,0.7,0l4.2-0.7c0,0,0.2-0.4,0.3-0.3c0.9-1,2.2-1.6,3.5-1.7C13,16.1,14.4,16.5,15.4,17.4
	L15.4,17.4z"/>
<path class="st1" d="M21.3,19c-0.5-1.8-1.5-3.4-2.9-4.6l-3,3c0.6,0.5,1.1,1.1,1.4,1.9c0.3,0.7,0.5,1.5,0.5,2.3V22
	c0.3,0,0.7,0.1,1,0.2c0.3,0.1,0.6,0.3,0.9,0.6c0.2,0.2,0.4,0.5,0.6,0.9s0.2,0.7,0.2,1c0,0.3-0.1,0.7-0.2,1c-0.1,0.3-0.3,0.6-0.6,0.9
	c-0.2,0.2-0.5,0.4-0.9,0.6c-0.3,0.1-0.7,0.2-1,0.2h-5.3l-0.5,0.5V31l0.5,0.5h5.3c1.5,0,2.9-0.5,4.1-1.3c1.2-0.9,2.1-2.1,2.5-3.5
	s0.4-2.9-0.1-4.3C23.4,21,22.5,19.8,21.3,19z"/>
<path class="st2" d="M6.8,31.5h5.3v-4.2H6.8c-0.4,0-0.7-0.1-1.1-0.2L5,27.3l-2.1,2.1l-0.2,0.7C3.9,31,5.3,31.5,6.8,31.5z"/>
<path class="st3" d="M6.8,17.8c-1.4,0-2.8,0.5-4,1.3c-1.2,0.8-2,2-2.5,3.4c-0.5,1.4-0.5,2.8-0.1,4.2c0.4,1.4,1.2,2.6,2.4,3.4L5.7,27
	c-0.4-0.2-0.7-0.4-1-0.8c-0.3-0.3-0.4-0.7-0.5-1.1c-0.1-0.4-0.1-0.9,0.1-1.3c0.1-0.4,0.4-0.8,0.7-1.1s0.7-0.5,1.1-0.7
	C6.4,22,6.9,22,7.3,22.1c0.4,0.1,0.8,0.3,1.1,0.5c0.3,0.3,0.6,0.6,0.8,1l3.1-3.1c-0.6-0.8-1.5-1.5-2.4-2C8.9,18.1,7.9,17.8,6.8,17.8
	z"/>
<path class="st4" d="M38.3,28.6c-0.9,0-1.8-0.2-2.6-0.5c-0.8-0.3-1.6-0.9-2.2-1.5c-0.7-0.6-1.2-1.4-1.5-2.2
	c-0.4-0.8-0.5-1.7-0.5-2.6c0-0.9,0.2-1.8,0.5-2.6c0.4-0.8,0.9-1.6,1.5-2.2c0.6-0.7,1.4-1.2,2.2-1.5c0.8-0.4,1.7-0.5,2.7-0.5
	c0.9,0,1.7,0.1,2.5,0.5c0.8,0.3,1.5,0.8,2.2,1.4l-1.3,1.3c-0.9-0.9-2.1-1.4-3.4-1.3c-0.7,0-1.3,0.1-1.9,0.4
	c-0.6,0.3-1.1,0.6-1.6,1.1c-0.5,0.5-0.8,1-1.1,1.6c-0.2,0.6-0.4,1.3-0.4,1.9c0,0.6,0.1,1.3,0.4,1.9c0.2,0.6,0.6,1.1,1.1,1.6
	c0.9,0.9,2.2,1.4,3.4,1.4c1.3,0,2.5-0.5,3.5-1.4c0.6-0.6,0.9-1.4,1-2.3h-4.4v-1.9h6.3c0.1,0.4,0.1,0.8,0.1,1.2
	c0,0.8-0.1,1.6-0.4,2.3c-0.3,0.8-0.7,1.4-1.3,2c-0.6,0.6-1.4,1.1-2.2,1.5C40.1,28.4,39.2,28.6,38.3,28.6z M52.9,27.3
	c-0.8,0.8-2,1.3-3.1,1.3s-2.3-0.5-3.1-1.3c-0.4-0.4-0.8-0.9-1-1.4c-0.2-0.5-0.3-1.1-0.3-1.7c0-0.6,0.1-1.2,0.3-1.7
	c0.2-0.5,0.6-1,1-1.4c0.8-0.8,2-1.3,3.1-1.3s2.3,0.5,3.1,1.3c0.4,0.4,0.7,0.9,1,1.4c0.2,0.5,0.3,1.1,0.3,1.7c0,0.6-0.1,1.2-0.3,1.7
	S53.3,26.9,52.9,27.3L52.9,27.3z M48,26.1c0.2,0.2,0.5,0.4,0.8,0.6c0.3,0.1,0.6,0.2,1,0.2s0.7-0.1,1-0.2c0.3-0.1,0.6-0.3,0.8-0.6
	c0.2-0.3,0.4-0.6,0.6-0.9c0.1-0.3,0.2-0.7,0.2-1c0-0.4,0-0.7-0.2-1c-0.1-0.3-0.3-0.6-0.6-0.9c-0.2-0.2-0.5-0.4-0.8-0.6
	c-0.3-0.1-0.6-0.2-1-0.2s-0.7,0.1-1,0.2c-0.3,0.1-0.6,0.3-0.8,0.6c-0.2,0.3-0.4,0.6-0.6,0.9c-0.1,0.3-0.2,0.7-0.2,1
	c0,0.4,0.1,0.7,0.2,1C47.6,25.5,47.8,25.8,48,26.1L48,26.1z M62.5,27.3c-0.8,0.8-2,1.3-3.1,1.3c-1.2,0-2.3-0.5-3.1-1.3
	c-0.4-0.4-0.8-0.9-1-1.4c-0.2-0.5-0.3-1.1-0.3-1.7c0-0.6,0.1-1.2,0.3-1.7c0.2-0.5,0.6-1,1-1.4c0.8-0.8,2-1.3,3.1-1.3
	c1.2,0,2.3,0.5,3.1,1.3c0.4,0.4,0.7,0.9,1,1.4c0.2,0.5,0.3,1.1,0.3,1.7c0,0.6-0.1,1.2-0.3,1.7C63.3,26.4,63,26.9,62.5,27.3z
	 M57.7,26.1c0.2,0.2,0.5,0.4,0.8,0.6c0.3,0.1,0.6,0.2,1,0.2c0.3,0,0.7-0.1,1-0.2c0.3-0.1,0.6-0.3,0.8-0.6c0.2-0.3,0.4-0.6,0.6-0.9
	c0.1-0.3,0.2-0.7,0.2-1c0-0.4,0-0.7-0.2-1c-0.1-0.3-0.3-0.6-0.6-0.9c-0.2-0.2-0.5-0.4-0.8-0.6c-0.3-0.1-0.6-0.2-1-0.2
	c-0.3,0-0.7,0.1-1,0.2c-0.3,0.1-0.6,0.3-0.8,0.6c-0.2,0.3-0.4,0.6-0.6,0.9c-0.1,0.3-0.2,0.7-0.2,1c0,0.4,0.1,0.7,0.2,1
	C57.2,25.5,57.4,25.8,57.7,26.1L57.7,26.1z M68.9,32.5c-0.9,0-1.8-0.2-2.5-0.8c-0.6-0.5-1.1-1.1-1.4-1.8l1.7-0.7
	c0.2,0.4,0.5,0.8,0.8,1.1c0.4,0.3,0.9,0.5,1.4,0.5c0.3,0,0.6,0,0.9-0.1c0.3-0.1,0.6-0.3,0.8-0.5c0.4-0.5,0.7-1.2,0.6-1.9v-0.6h-0.1
	c-0.3,0.3-0.6,0.6-1,0.8c-0.4,0.2-0.8,0.3-1.3,0.2c-0.6,0-1.1-0.1-1.6-0.3c-0.5-0.2-1-0.5-1.3-1c-0.4-0.4-0.7-0.9-1-1.4
	c-0.2-0.5-0.3-1.1-0.3-1.7c0-0.6,0.1-1.2,0.3-1.7c0.2-0.5,0.5-1,1-1.4c0.4-0.4,0.8-0.7,1.3-1c0.5-0.2,1.1-0.3,1.6-0.3
	c0.5,0,0.9,0.1,1.4,0.3c0.4,0.2,0.7,0.4,1,0.7h0.1V20h1.8v7.9c0,0.6,0,1.3-0.2,1.8c-0.2,0.6-0.5,1.1-0.9,1.6
	c-0.4,0.4-0.9,0.7-1.4,0.9C70,32.4,69.4,32.5,68.9,32.5z M69,26.8c0.3,0,0.6-0.1,0.9-0.2c0.3-0.1,0.5-0.3,0.8-0.6
	c0.5-0.5,0.7-1.2,0.7-1.9c0-0.7-0.2-1.4-0.7-1.9c-0.2-0.2-0.5-0.4-0.8-0.6c-0.3-0.1-0.6-0.2-0.9-0.2c-0.3,0-0.6,0.1-0.9,0.2
	s-0.6,0.3-0.8,0.6c-0.5,0.5-0.8,1.2-0.7,1.9c0,0.3,0.1,0.7,0.2,1c0.1,0.3,0.3,0.6,0.6,0.9c0.2,0.2,0.5,0.4,0.8,0.6
	C68.4,26.8,68.7,26.8,69,26.8z M76.3,15.3v12.9h-1.9V15.3H76.3z M81.6,28.6c-0.6,0-1.2-0.1-1.7-0.3c-0.5-0.2-1-0.5-1.4-1
	c-0.4-0.4-0.7-0.9-0.9-1.4c-0.2-0.5-0.3-1.1-0.3-1.7c0-0.6,0.1-1.2,0.3-1.7c0.2-0.5,0.5-1,0.9-1.5c0.4-0.4,0.8-0.7,1.3-0.9
	c0.5-0.2,1.1-0.3,1.6-0.3c0.5,0,1,0.1,1.5,0.3c0.4,0.2,0.8,0.4,1.1,0.7c0.3,0.3,0.5,0.6,0.7,0.9c0.2,0.3,0.3,0.6,0.4,0.9l0.2,0.5
	l-5.9,2.4c0.2,0.4,0.5,0.8,0.9,1c0.4,0.2,0.8,0.4,1.3,0.3c0.4,0,0.9-0.1,1.2-0.3c0.4-0.2,0.7-0.5,0.9-0.9l1.5,1
	c-0.4,0.5-0.9,1-1.4,1.3C83.2,28.4,82.4,28.6,81.6,28.6z M79.2,24l3.9-1.6c-0.1-0.3-0.3-0.5-0.6-0.7c-0.3-0.2-0.7-0.3-1-0.3
	c-0.6,0-1.2,0.3-1.6,0.7c-0.2,0.2-0.4,0.5-0.6,0.9C79.2,23.3,79.1,23.7,79.2,24z"/>
<path class="st4" d="M95.5,28.6c-0.8,0-1.6-0.1-2.4-0.4c-0.8-0.3-1.5-0.8-2-1.4c-0.6-0.6-1-1.3-1.3-2c-0.3-0.8-0.5-1.6-0.4-2.4
	c0-0.8,0.1-1.6,0.4-2.4c0.3-0.8,0.8-1.5,1.3-2c0.6-0.6,1.3-1,2-1.4c0.8-0.3,1.6-0.5,2.4-0.4c0.8,0,1.7,0.1,2.4,0.5
	c0.8,0.3,1.4,0.8,2,1.5l-1.1,1c-0.4-0.5-0.9-0.9-1.5-1.2c-0.6-0.3-1.2-0.4-1.8-0.4c-0.6,0-1.2,0.1-1.8,0.3c-0.6,0.2-1.1,0.6-1.5,1
	c-0.4,0.5-0.8,1-1,1.6c-0.2,0.6-0.3,1.2-0.3,1.9c0,0.6,0.1,1.3,0.3,1.9c0.2,0.6,0.6,1.1,1,1.6c0.4,0.4,0.9,0.8,1.5,1
	c0.6,0.2,1.2,0.3,1.8,0.3c0.7,0,1.4-0.1,2-0.4c0.6-0.3,1.2-0.7,1.7-1.3l1.1,1.1c-0.6,0.7-1.3,1.2-2,1.6
	C97.4,28.4,96.5,28.6,95.5,28.6z"/>
<path class="st4" d="M103.2,28.3h-1.5v-12h1.5V28.3z"/>
<path class="st4" d="M105.7,21.1c0.8-0.8,1.9-1.2,3-1.2c1.1,0,2.2,0.4,3,1.2c0.4,0.4,0.7,0.9,0.9,1.4c0.2,0.5,0.3,1.1,0.3,1.7
	c0,0.6-0.1,1.1-0.3,1.7c-0.2,0.5-0.5,1-0.9,1.4c-0.8,0.8-1.9,1.2-3,1.2c-1.1,0-2.2-0.4-3-1.2c-0.4-0.4-0.7-0.9-0.9-1.4
	c-0.2-0.5-0.3-1.1-0.3-1.7c0-0.6,0.1-1.1,0.3-1.7C105,22,105.3,21.5,105.7,21.1z M106.8,26.3c0.2,0.3,0.5,0.5,0.9,0.6
	c0.3,0.1,0.7,0.2,1,0.2s0.7-0.1,1-0.2c0.3-0.1,0.6-0.3,0.9-0.6c0.3-0.3,0.5-0.6,0.6-1s0.2-0.8,0.2-1.2c0-0.4,0-0.8-0.2-1.2
	s-0.3-0.7-0.6-1c-0.2-0.3-0.5-0.5-0.9-0.6c-0.3-0.1-0.7-0.2-1-0.2s-0.7,0.1-1,0.2c-0.3,0.1-0.6,0.3-0.9,0.6c-0.3,0.3-0.5,0.6-0.6,1
	s-0.2,0.8-0.2,1.2c0,0.4,0,0.8,0.2,1.1C106.3,25.7,106.6,26.1,106.8,26.3L106.8,26.3z"/>
<path class="st4" d="M121.4,28.3h-1.5v-1.1h0c-0.3,0.4-0.6,0.8-1.1,1c-0.5,0.3-1,0.4-1.5,0.4c-0.4,0-0.9,0-1.3-0.2
	c-0.4-0.2-0.8-0.4-1.1-0.7c-0.6-0.7-0.8-1.6-0.8-2.5v-5h1.5v4.8c0,1.5,0.7,2.3,2,2.3c0.3,0,0.6-0.1,0.9-0.2c0.3-0.1,0.5-0.3,0.7-0.6
	c0.4-0.5,0.6-1.1,0.6-1.8v-4.5h1.5V28.3z"/>
<path class="st4" d="M126.6,28.6c-0.5,0-1-0.1-1.5-0.3c-0.5-0.2-0.9-0.5-1.2-0.9c-0.8-0.8-1.2-2-1.1-3.1c0-1.1,0.4-2.3,1.1-3.1
	c0.3-0.4,0.8-0.7,1.2-0.9c0.5-0.2,1-0.3,1.5-0.3c0.6,0,1.2,0.1,1.7,0.4c0.5,0.2,0.8,0.6,1.1,1h0.1l-0.1-1.1v-3.8h1.5v12h-1.5v-1.1
	h-0.1c-0.3,0.4-0.7,0.8-1.1,1C127.7,28.4,127.2,28.6,126.6,28.6z M126.8,27.2c0.3,0,0.7-0.1,1-0.2c0.3-0.1,0.6-0.3,0.8-0.6
	c0.5-0.6,0.8-1.4,0.7-2.2c0-0.8-0.2-1.6-0.7-2.2c-0.2-0.3-0.5-0.5-0.8-0.6c-0.3-0.1-0.7-0.2-1-0.2c-0.3,0-0.7,0.1-1,0.2
	c-0.3,0.1-0.6,0.3-0.8,0.6c-0.3,0.3-0.5,0.6-0.6,1c-0.1,0.4-0.2,0.8-0.2,1.1c0,0.4,0,0.8,0.2,1.1c0.1,0.4,0.3,0.7,0.6,1
	c0.2,0.3,0.5,0.5,0.8,0.6C126.1,27.1,126.5,27.2,126.8,27.2z"/>
</svg>
